HIERARCHY
ROOT Hips
{
  OFFSET 5.80788e-005 67.184 3.4734
  CHANNELS 6 Xposition Yposition Zposition Zrotation Xrotation Yrotation
  JOINT Chest
  {
    OFFSET 0 8.7983 -4.7612
    CHANNELS 6 Xposition Yposition Zposition Zrotation Xrotation Yrotation
    JOINT Chest2
    {
      OFFSET 0 8.0291 0.4195
      CHANNELS 6 Xposition Yposition Zposition Zrotation Xrotation Yrotation
      JOINT Chest3
      {
        OFFSET 0 9.9351 -2.2114
        CHANNELS 6 Xposition Yposition Zposition Zrotation Xrotation Yrotation
        JOINT Neck
        {
          OFFSET 0 22.3885 -0.4656
          CHANNELS 6 Xposition Yposition Zposition Zrotation Xrotation Yrotation
          JOINT Head
          {
            OFFSET -0.0001 12.643 3.4389
            CHANNELS 6 Xposition Yposition Zposition Zrotation Xrotation Yrotation
            End Site
            {
              OFFSET 0.0001 17.6655 0.5274
            }
          }
        }
        JOINT LeftCollar
        {
          OFFSET 2.2603 21.606 7.4023
          CHANNELS 6 Xposition Yposition Zposition Zrotation Xrotation Yrotation
          JOINT LeftShoulder
          {
            OFFSET 13.5163 -1.1332 -5.0146
            CHANNELS 6 Xposition Yposition Zposition Zrotation Xrotation Yrotation
            JOINT LeftElbow
            {
              OFFSET -0.0995 -28.05 -0.2431
              CHANNELS 6 Xposition Yposition Zposition Zrotation Xrotation Yrotation
              JOINT LeftWrist
              {
                OFFSET 0.0679 -23.3996 -0.1402
                CHANNELS 6 Xposition Yposition Zposition Zrotation Xrotation Yrotation
                JOINT LeftFinger1
                {
                  OFFSET 0.7932 -9.069 2.5189
                  CHANNELS 6 Xposition Yposition Zposition Zrotation Xrotation Yrotation
                  JOINT LeftFinger11
                  {
                    OFFSET -0.8272 -3.3923 0.5977
                    CHANNELS 6 Xposition Yposition Zposition Zrotation Xrotation Yrotation
                    JOINT LeftFinger12
                    {
                      OFFSET -0.5649 -2.3158 0.4082
                      CHANNELS 6 Xposition Yposition Zposition Zrotation Xrotation Yrotation
                      End Site
                      {
                        OFFSET -0.4919 -1.6479 0.2673
                      }
                    }
                  }
                }
                JOINT LeftFinger2
                {
                  OFFSET 0.9159 -9.2044 0.2193
                  CHANNELS 6 Xposition Yposition Zposition Zrotation Xrotation Yrotation
                  JOINT LeftFinger21
                  {
                    OFFSET 0.0117 -4.1944 -0.0248
                    CHANNELS 6 Xposition Yposition Zposition Zrotation Xrotation Yrotation
                    JOINT LeftFinger22
                    {
                      OFFSET 0.0071 -2.3249 -0.0142
                      CHANNELS 6 Xposition Yposition Zposition Zrotation Xrotation Yrotation
                      End Site
                      {
                        OFFSET -0.1475 -2.0882 0.0028
                      }
                    }
                  }
                }
                JOINT LeftFinger3
                {
                  OFFSET 0.6113 -8.7231 -2.0637
                  CHANNELS 6 Xposition Yposition Zposition Zrotation Xrotation Yrotation
                  JOINT LeftFinger31
                  {
                    OFFSET -0.1927 -3.8059 -0.2383
                    CHANNELS 6 Xposition Yposition Zposition Zrotation Xrotation Yrotation
                    JOINT LeftFinger32
                    {
                      OFFSET -0.1091 -2.1688 -0.1362
                      CHANNELS 6 Xposition Yposition Zposition Zrotation Xrotation Yrotation
                      End Site
                      {
                        OFFSET -0.2358 -1.9176 -0.0906
                      }
                    }
                  }
                }
                JOINT LeftFinger4
                {
                  OFFSET -0.6151 -8.0947 -3.5641
                  CHANNELS 6 Xposition Yposition Zposition Zrotation Xrotation Yrotation
                  JOINT LeftFinger41
                  {
                    OFFSET -0.4882 -2.341 -0.6462
                    CHANNELS 6 Xposition Yposition Zposition Zrotation Xrotation Yrotation
                    JOINT LeftFinger42
                    {
                      OFFSET -0.3575 -1.7167 -0.4742
                      CHANNELS 6 Xposition Yposition Zposition Zrotation Xrotation Yrotation
                      End Site
                      {
                        OFFSET -0.4187 -1.5237 -0.3496
                      }
                    }
                  }
                }
                JOINT LeftFinger0
                {
                  OFFSET -1.42 -1.8761 1.4223
                  CHANNELS 6 Xposition Yposition Zposition Zrotation Xrotation Yrotation
                  JOINT LeftFinger01
                  {
                    OFFSET -1.1471 -3.4929 2.6334
                    CHANNELS 6 Xposition Yposition Zposition Zrotation Xrotation Yrotation
                    JOINT LeftFinger02
                    {
                      OFFSET -0.823 -2.3 1.6571
                      CHANNELS 6 Xposition Yposition Zposition Zrotation Xrotation Yrotation
                      End Site
                      {
                        OFFSET -0.5822 -1.6914 1.1582
                      }
                    }
                  }
                }
              }
            }
          }
        }
        JOINT RightCollar
        {
          OFFSET -2.2603 21.606 7.4023
          CHANNELS 6 Xposition Yposition Zposition Zrotation Xrotation Yrotation
          JOINT RightShoulder
          {
            OFFSET -13.5187 -1.1334 -5.0155
            CHANNELS 6 Xposition Yposition Zposition Zrotation Xrotation Yrotation
            JOINT RightElbow
            {
              OFFSET 0.0994 -28.0499 -0.2431
              CHANNELS 6 Xposition Yposition Zposition Zrotation Xrotation Yrotation
              JOINT RightWrist
              {
                OFFSET -0.0679 -23.3996 -0.1402
                CHANNELS 6 Xposition Yposition Zposition Zrotation Xrotation Yrotation
                JOINT RightFinger1
                {
                  OFFSET -0.7932 -9.0691 2.5189
                  CHANNELS 6 Xposition Yposition Zposition Zrotation Xrotation Yrotation
                  JOINT RightFinger11
                  {
                    OFFSET 0.8272 -3.3923 0.5977
                    CHANNELS 6 Xposition Yposition Zposition Zrotation Xrotation Yrotation
                    JOINT RightFinger12
                    {
                      OFFSET 0.565 -2.3158 0.4082
                      CHANNELS 6 Xposition Yposition Zposition Zrotation Xrotation Yrotation
                      End Site
                      {
                        OFFSET 0.4919 -1.6479 0.2673
                      }
                    }
                  }
                }
                JOINT RightFinger2
                {
                  OFFSET -0.916 -9.2044 0.2193
                  CHANNELS 6 Xposition Yposition Zposition Zrotation Xrotation Yrotation
                  JOINT RightFinger21
                  {
                    OFFSET -0.0117 -4.1944 -0.0248
                    CHANNELS 6 Xposition Yposition Zposition Zrotation Xrotation Yrotation
                    JOINT RightFinger22
                    {
                      OFFSET -0.0071 -2.3249 -0.0142
                      CHANNELS 6 Xposition Yposition Zposition Zrotation Xrotation Yrotation
                      End Site
                      {
                        OFFSET 0.1475 -2.0882 0.0028
                      }
                    }
                  }
                }
                JOINT RightFinger3
                {
                  OFFSET -0.6113 -8.7231 -2.0637
                  CHANNELS 6 Xposition Yposition Zposition Zrotation Xrotation Yrotation
                  JOINT RightFinger31
                  {
                    OFFSET 0.1927 -3.8059 -0.2383
                    CHANNELS 6 Xposition Yposition Zposition Zrotation Xrotation Yrotation
                    JOINT RightFinger32
                    {
                      OFFSET 0.1091 -2.1688 -0.1362
                      CHANNELS 6 Xposition Yposition Zposition Zrotation Xrotation Yrotation
                      End Site
                      {
                        OFFSET 0.2358 -1.9176 -0.0906
                      }
                    }
                  }
                }
                JOINT RightFinger4
                {
                  OFFSET 0.6151 -8.0947 -3.564
                  CHANNELS 6 Xposition Yposition Zposition Zrotation Xrotation Yrotation
                  JOINT RightFinger41
                  {
                    OFFSET 0.4882 -2.341 -0.6462
                    CHANNELS 6 Xposition Yposition Zposition Zrotation Xrotation Yrotation
                    JOINT RightFinger42
                    {
                      OFFSET 0.3574 -1.7166 -0.4742
                      CHANNELS 6 Xposition Yposition Zposition Zrotation Xrotation Yrotation
                      End Site
                      {
                        OFFSET 0.4187 -1.5237 -0.3496
                      }
                    }
                  }
                }
                JOINT RightFinger0
                {
                  OFFSET 1.4199 -1.8761 1.4221
                  CHANNELS 6 Xposition Yposition Zposition Zrotation Xrotation Yrotation
                  JOINT RightFinger01
                  {
                    OFFSET 1.1472 -3.4929 2.6336
                    CHANNELS 6 Xposition Yposition Zposition Zrotation Xrotation Yrotation
                    JOINT RightFinger02
                    {
                      OFFSET 0.8229 -2.3 1.6571
                      CHANNELS 6 Xposition Yposition Zposition Zrotation Xrotation Yrotation
                      End Site
                      {
                        OFFSET 0.5822 -1.6914 1.1582
                      }
                    }
                  }
                }
              }
            }
          }
        }
      }
    }
  }
  JOINT RightHip
  {
    OFFSET -9.412 3.9771 -0.7758
    CHANNELS 6 Xposition Yposition Zposition Zrotation Xrotation Yrotation
    JOINT RightKnee
    {
      OFFSET -0.7531 -40.938 0
      CHANNELS 6 Xposition Yposition Zposition Zrotation Xrotation Yrotation
      JOINT RightAnkle
      {
        OFFSET 0 -40.1986 0
        CHANNELS 6 Xposition Yposition Zposition Zrotation Xrotation Yrotation
        JOINT RightToe
        {
          OFFSET 0 -4.4182 9.239
          CHANNELS 6 Xposition Yposition Zposition Zrotation Xrotation Yrotation
          End Site
          {
            OFFSET 0 0 6.1981
          }
        }
      }
    }
  }
  JOINT LeftHip
  {
    OFFSET 9.4119 3.9773 -0.7758
    CHANNELS 6 Xposition Yposition Zposition Zrotation Xrotation Yrotation
    JOINT LeftKnee
    {
      OFFSET 0.7532 -40.9383 0
      CHANNELS 6 Xposition Yposition Zposition Zrotation Xrotation Yrotation
      JOINT LeftAnkle
      {
        OFFSET 0 -40.1986 0
        CHANNELS 6 Xposition Yposition Zposition Zrotation Xrotation Yrotation
        JOINT LeftToe
        {
          OFFSET 0 -4.4182 9.239
          CHANNELS 6 Xposition Yposition Zposition Zrotation Xrotation Yrotation
          End Site
          {
            OFFSET 0 0 6.1981
          }
        }
      }
    }
  }
}
MOTION
Frames:	4
Frame Time:	0.0333333
5.80788e-005 67.184 3.4734 0 0 -0 0 8.7983 -4.7612 0 0 -0 0 8.0291 0.4195 0 0 -0 0 9.9351 -2.2114 0 0 -0 0 22.3885 -0.4656 0 0 -0 -0.0001 12.643 3.4389 0 0 -0 2.2603 21.606 7.4023 0 0 -12.5014 13.5163 -1.1332 -5.0146 88.1196 14.2451 10.6914 -0.0995 -28.05 -0.2431 -0.00160068 -0.00239207 0.000740045 0.0679 -23.3996 -0.1402 -8.4365e-005 7.00714e-005 -9.52055e-007 0.7932 -9.069 2.5189 9.93923e-017 -1.98785e-016 -1.59028e-015 -0.8272 -3.3923 0.5977 9.93923e-017 -5.96354e-016 -1.59028e-015 -0.5649 -2.3158 0.4082 -9.93923e-017 -5.96354e-016 -1.59028e-015 0.9159 -9.2044 0.2193 9.93923e-017 -1.98785e-016 -1.59028e-015 0.0117 -4.1944 -0.0248 -0.0128176 0.00232552 8.52707e-005 0.0071 -2.3249 -0.0142 9.93923e-017 5.96354e-016 -0 0.6113 -8.7231 -2.0637 9.93923e-017 -1.98785e-016 -1.59028e-015 -0.1927 -3.8059 -0.2383 -0.0160551 0.00299681 0.000857156 -0.1091 -2.1688 -0.1362 -2.48481e-016 0 3.18055e-015 -0.6151 -8.0947 -3.5641 9.93923e-017 -1.98785e-016 -1.59028e-015 -0.4882 -2.341 -0.6462 -0.0125865 0.0031206 0.00282719 -0.3575 -1.7167 -0.4742 0 1.98785e-016 -0 -1.42 -1.8761 1.4223 9.93923e-017 -1.98785e-016 -1.59028e-015 -1.1471 -3.4929 2.6334 9.93923e-017 -5.96354e-016 -1.59028e-015 -0.823 -2.3 1.6571 -9.93923e-017 -5.96354e-016 -1.59028e-015 -2.2603 21.606 7.4023 -0.865644 0.16582 7.03859 -13.5187 -1.1334 -5.0155 -88.0329 10.2057 -10.5567 0.0994 -28.0499 -0.2431 0.0015593 -0.00248883 -0.000788628 -0.0679 -23.3996 -0.1402 7.87605e-005 4.10553e-005 1.24965e-005 -0.7932 -9.0691 2.5189 -3.97569e-016 -7.95139e-016 3.18055e-015 0.8272 -3.3923 0.5977 -1.98785e-016 -3.97569e-016 3.18055e-015 0.565 -2.3158 0.4082 -1.98785e-016 0 3.18055e-015 -0.916 -9.2044 0.2193 -3.97569e-016 -7.95139e-016 3.18055e-015 -0.0117 -4.1944 -0.0248 0.0129473 0.00231697 -8.70038e-005 -0.0071 -2.3249 -0.0142 9.93923e-017 -7.95139e-016 1.59028e-015 -0.6113 -8.7231 -2.0637 -3.97569e-016 -7.95139e-016 3.18055e-015 0.1927 -3.8059 -0.2383 0.0163314 0.00303369 -0.000872333 0.1091 -2.1688 -0.1362 3.97569e-016 7.95139e-016 -3.18055e-015 0.6151 -8.0947 -3.564 -3.97569e-016 -7.95139e-016 3.18055e-015 0.4882 -2.341 -0.6462 0.0145763 0.00367772 -0.00326275 0.3574 -1.7166 -0.4742 9.93923e-017 -3.97569e-016 -0 1.4199 -1.8761 1.4221 -3.97569e-016 -7.95139e-016 3.18055e-015 1.1472 -3.4929 2.6336 -1.98785e-016 -3.97569e-016 3.18055e-015 0.8229 -2.3 1.6571 -1.98785e-016 0 3.18055e-015 -9.412 3.9771 -0.7758 3.42485 1.36937 -0.0640303 -0.7531 -40.938 0 0.000136572 0.69354 0.00145564 1.77636e-015 -40.1986 -1.11022e-016 -3.42573 -2.06297 -0.0607933 8.88178e-016 -4.4182 9.239 -3.19502e-024 0 -1.48106e-024 9.4119 3.9773 -0.7758 -3.42498 1.36123 0.0639712 0.7532 -40.9383 2.22045e-016 -6.769e-005 0.712612 -0.0012277 8.88179e-016 -40.1986 0 3.42582 -2.07388 0.0612819 -8.88178e-016 -4.4182 9.239 2.55305e-023 0 -2.31416e-026 
41.2788 4.57476 26.586 -168.753 62.6797 -7.44086e-006 0 8.7983 -4.7612 0.593901 7.52574 -0.585799 0 8.0291 0.4195 1.283 15.0445 -1.26769 0 9.9351 -2.2114 1.283 15.0446 -1.2677 0 22.3885 -0.4656 -2.97264e-006 15.0382 3.39694e-007 -0.0001 12.643 3.4389 9.94803e-007 0.285525 3.28232e-006 2.2603 21.606 7.4023 -47.2129 -4.01886 -11.7197 13.5163 -1.1332 -5.0146 92.9316 16.2441 -49.0983 -0.0995 -28.05 -0.2431 0.186666 -2.90896 -38.6383 0.0679 -23.3996 -0.1402 0.694039 -5.13279 -11.8085 0.7932 -9.069 2.5189 3.18055e-015 -3.18055e-015 -7.95139e-015 -0.8272 -3.3923 0.5977 -1.59028e-015 3.18055e-015 -1.59028e-015 -0.5649 -2.3158 0.4082 1.59028e-015 -6.36111e-015 -1.59028e-015 0.9159 -9.2044 0.2193 3.18055e-015 -3.18055e-015 -7.95139e-015 0.0117 -4.1944 -0.0248 -0.0127997 0.00231837 9.34719e-005 0.0071 -2.3249 -0.0142 7.01577e-007 1.21187e-006 1.67269e-006 0.6113 -8.7231 -2.0637 3.18055e-015 -3.18055e-015 -7.95139e-015 -0.1927 -3.8059 -0.2383 -0.016025 0.00298631 0.000857862 -0.1091 -2.1688 -0.1362 4.77083e-015 -2.22639e-014 -1.59028e-015 -0.6151 -8.0947 -3.5641 3.18055e-015 -3.18055e-015 -7.95139e-015 -0.4882 -2.341 -0.6462 -0.0126071 0.00313235 0.00283606 -0.3575 -1.7167 -0.4742 -1.76556e-031 3.18055e-015 3.18055e-015 -1.42 -1.8761 1.4223 3.18055e-015 -3.18055e-015 -7.95139e-015 -1.1471 -3.4929 2.6334 -1.59028e-015 3.18055e-015 -1.59028e-015 -0.823 -2.3 1.6571 1.59028e-015 -6.36111e-015 -1.59028e-015 -2.2603 21.606 7.4023 49.8179 -3.5358 -7.67706 -13.5187 -1.1334 -5.0155 -71.0368 -58.6908 -39.2098 0.0994 -28.0499 -0.2431 47.4199 7.91517 93.1767 -0.0679 -23.3996 -0.1402 -13.1447 -11.2458 -31.1556 -0.7932 -9.0691 2.5189 -2.42244e-006 2.43249e-006 4.62419e-007 0.8272 -3.3923 0.5977 2.42244e-006 -2.43249e-006 -4.62419e-007 0.565 -2.3158 0.4082 -1.43888e-005 -1.53407e-006 -5.173e-007 -0.916 -9.2044 0.2193 -2.42244e-006 2.43249e-006 4.62419e-007 -0.0117 -4.1944 -0.0248 0.0128785 0.00230051 -8.61492e-005 -0.0071 -2.3249 -0.0142 -9.54379e-006 -1.06274e-006 -1.44252e-006 -0.6113 -8.7231 -2.0637 -2.42244e-006 2.43249e-006 4.62419e-007 0.1927 -3.8059 -0.2383 0.0163556 0.00303322 -0.000873921 0.1091 -2.1688 -0.1362 -1.17751e-005 -3.24741e-007 -9.19515e-007 0.6151 -8.0947 -3.564 -2.42244e-006 2.43249e-006 4.62419e-007 0.4882 -2.341 -0.6462 0.014568 0.00367615 -0.00325874 0.3574 -1.7166 -0.4742 -2.62156e-007 -3.7467e-006 1.58498e-006 1.4199 -1.8761 1.4221 -2.42244e-006 2.43249e-006 4.62419e-007 1.1472 -3.4929 2.6336 2.42244e-006 -2.43249e-006 -4.62419e-007 0.8229 -2.3 1.6571 -1.43888e-005 -1.53407e-006 -5.173e-007 -9.412 3.9771 -0.7758 -48.8492 -47.4302 -78.8293 -0.7531 -40.938 7.10543e-015 -125.377 34.7279 140.648 0 -40.1986 3.55271e-015 -18.6097 -4.82402 -35.4143 -7.10543e-015 -4.4182 9.239 -5.06493e-006 -5.79844e-007 6.93581e-008 9.4119 3.9773 -0.7758 62.5358 -47.3112 89.6381 0.7532 -40.9383 0 136.18 37.6046 -126.752 3.55271e-015 -40.1986 2.66454e-015 24.3848 -13.0627 11.5824 0 -4.4182 9.239 9.4287e-006 7.16078e-007 2.65753e-006 
40.0791 9.65276 24.9226 179.997 58.9977 3.84449e-008 7.10543e-015 8.7983 -4.7612 0.553227 7.25916 -0.552761 0 8.0291 0.4195 1.19223 14.5122 -1.19135 7.10543e-015 9.9351 -2.2114 1.19224 14.5122 -1.19135 0 22.3885 -0.4656 -8.47628e-007 14.7713 5.97173e-007 -0.0001 12.643 3.4389 -2.27537e-007 0.785981 6.01287e-007 2.2603 21.606 7.4023 -45.2024 -3.7393 -12.8967 13.5163 -1.1332 -5.0146 94.1684 17.3646 -45.953 -0.0995 -28.05 -0.2431 -0.0365982 -3.49961 -36.3857 0.0679 -23.3996 -0.1402 1.09611 -4.94143 -10.3437 0.7932 -9.069 2.5189 8.82781e-032 6.36111e-015 -7.95139e-016 -0.8272 -3.3923 0.5977 -6.62086e-032 9.54166e-015 3.97569e-016 -0.5649 -2.3158 0.4082 -3.97569e-016 6.36111e-015 -0 0.9159 -9.2044 0.2193 8.82781e-032 6.36111e-015 -7.95139e-016 0.0117 -4.1944 -0.0248 -0.0128244 0.00233518 8.79702e-005 0.0071 -2.3249 -0.0142 4.96833e-006 -8.61624e-007 -4.6864e-006 0.6113 -8.7231 -2.0637 8.82781e-032 6.36111e-015 -7.95139e-016 -0.1927 -3.8059 -0.2383 -0.0160451 0.00299977 0.000857745 -0.1091 -2.1688 -0.1362 -0 0 3.97569e-016 -0.6151 -8.0947 -3.5641 8.82781e-032 6.36111e-015 -7.95139e-016 -0.4882 -2.341 -0.6462 -0.0125748 0.00312011 0.00282171 -0.3575 -1.7167 -0.4742 -1.59028e-015 9.54166e-015 3.97569e-016 -1.42 -1.8761 1.4223 8.82781e-032 6.36111e-015 -7.95139e-016 -1.1471 -3.4929 2.6334 -6.62086e-032 9.54166e-015 3.97569e-016 -0.823 -2.3 1.6571 -3.97569e-016 6.36111e-015 -0 -2.2603 21.606 7.4023 46.6217 -3.95294 -6.77466 -13.5187 -1.1334 -5.0155 -72.4777 -55.4768 -38.1252 0.0994 -28.0499 -0.2431 47.4136 7.8674 85.8169 -0.0679 -23.3996 -0.1402 -13.1247 -10.8108 -29.3405 -0.7932 -9.0691 2.5189 -2.6226e-006 -2.21323e-006 -1.42854e-006 0.8272 -3.3923 0.5977 -4.5952e-006 1.23743e-006 -1.19672e-006 0.565 -2.3158 0.4082 -4.88772e-006 -2.48794e-006 3.72793e-007 -0.916 -9.2044 0.2193 -2.6226e-006 -2.21323e-006 -1.42854e-006 -0.0117 -4.1944 -0.0248 0.0129378 0.00231845 -8.7055e-005 -0.0071 -2.3249 -0.0142 -2.92721e-007 -3.73167e-006 1.56951e-006 -0.6113 -8.7231 -2.0637 -2.6226e-006 -2.21323e-006 -1.42854e-006 0.1927 -3.8059 -0.2383 0.0163427 0.00303233 -0.000869329 0.1091 -2.1688 -0.1362 -5.69059e-006 -1.32849e-006 -5.67373e-006 0.6151 -8.0947 -3.564 -2.6226e-006 -2.21323e-006 -1.42854e-006 0.4882 -2.341 -0.6462 0.0145254 0.00366399 -0.00325926 0.3574 -1.7166 -0.4742 -4.88812e-006 7.16768e-008 3.72565e-007 1.4199 -1.8761 1.4221 -2.6226e-006 -2.21323e-006 -1.42854e-006 1.1472 -3.4929 2.6336 -4.5952e-006 1.23743e-006 -1.19672e-006 0.8229 -2.3 1.6571 -4.88772e-006 -2.48794e-006 3.72793e-007 -9.412 3.9771 -0.7758 -43.1108 -48.7212 -73.3476 -0.7531 -40.938 0 -121.913 41.2803 138.993 0 -40.1986 7.10543e-015 -17.8178 -5.03135 -33.5186 0 -4.4182 9.239 -3.86081e-006 -2.46163e-006 -2.41736e-006 9.4119 3.9773 -0.7758 56.5253 -49.9568 84.3731 0.7532 -40.9383 -7.10543e-015 130.633 42.66 -124.674 0 -40.1986 0 23.3147 -12.7693 11.0437 0 -4.4182 9.239 -1.56242e-006 7.95139e-016 -2.21643e-007 
40.0783 9.65558 24.693 179.997 58.9977 -1.04064e-006 0 8.7983 -4.7612 0.551396 7.42564 -0.557384 -7.10543e-015 8.0291 0.4195 1.19155 14.8452 -1.20288 7.10543e-015 9.9351 -2.2114 1.19156 14.8452 -1.20289 -7.10543e-015 22.3885 -0.4656 1.91223e-006 15.3548 -1.02847e-006 -0.0001 12.643 3.4389 -1.64882e-007 1.2746 3.97174e-007 2.2603 21.606 7.4023 -45.9234 -3.68428 -13.9653 13.5163 -1.1332 -5.0146 95.6353 18.4578 -46.344 -0.0995 -28.05 -0.2431 -0.231967 -4.24804 -36.4034 0.0679 -23.3996 -0.1402 1.51739 -5.04172 -9.61469 0.7932 -9.069 2.5189 -3.97569e-016 1.59028e-014 -0 -0.8272 -3.3923 0.5977 -7.95139e-016 0 3.97569e-016 -0.5649 -2.3158 0.4082 -6.31909e-006 2.01116e-006 3.33654e-006 0.9159 -9.2044 0.2193 -3.97569e-016 1.59028e-014 -0 0.0117 -4.1944 -0.0248 -0.0128292 0.00233231 9.50144e-005 0.0071 -2.3249 -0.0142 0 0 -7.95139e-016 0.6113 -8.7231 -2.0637 -3.97569e-016 1.59028e-014 -0 -0.1927 -3.8059 -0.2383 -0.0160625 0.00300582 0.000863149 -0.1091 -2.1688 -0.1362 -1.59028e-015 6.36111e-015 -0 -0.6151 -8.0947 -3.5641 -3.97569e-016 1.59028e-014 -0 -0.4882 -2.341 -0.6462 -0.0125781 0.00312311 0.00282379 -0.3575 -1.7167 -0.4742 -8.87568e-006 1.46274e-006 5.60425e-006 -1.42 -1.8761 1.4223 -3.97569e-016 1.59028e-014 -0 -1.1471 -3.4929 2.6334 -7.95139e-016 0 3.97569e-016 -0.823 -2.3 1.6571 -6.31909e-006 2.01116e-006 3.33654e-006 -2.2603 21.606 7.4023 46.3676 -4.54009 -6.74552 -13.5187 -1.1334 -5.0155 -73.0208 -56.2989 -38.7144 0.0994 -28.0499 -0.2431 48.5968 8.00686 86.8286 -0.0679 -23.3996 -0.1402 -13.8766 -11.0147 -29.3998 -0.7932 -9.0691 2.5189 -7.95139e-016 -8.75407e-007 -0 0.8272 -3.3923 0.5977 -2.78299e-015 1.59028e-015 6.36111e-015 0.565 -2.3158 0.4082 1.4648e-006 -2.43006e-006 2.92146e-006 -0.916 -9.2044 0.2193 -7.95139e-016 -8.75407e-007 -0 -0.0117 -4.1944 -0.0248 0.0130177 0.00232409 -8.75868e-005 -0.0071 -2.3249 -0.0142 -4.37326e-015 -8.75336e-007 3.18055e-015 -0.6113 -8.7231 -2.0637 -7.95139e-016 -8.75407e-007 -0 0.1927 -3.8059 -0.2383 0.0163334 0.00303284 -0.000874912 0.1091 -2.1688 -0.1362 1.98785e-015 0 -3.18055e-015 0.6151 -8.0947 -3.564 -7.95139e-016 -8.75407e-007 -0 0.4882 -2.341 -0.646201 0.0145175 0.00366426 -0.00324524 0.3574 -1.7166 -0.4742 -2.06736e-014 -1.59028e-015 -0 1.4199 -1.8761 1.4221 -7.95139e-016 -8.75407e-007 -0 1.1472 -3.4929 2.6336 -2.78299e-015 1.59028e-015 6.36111e-015 0.8229 -2.3 1.6571 1.4648e-006 -2.43006e-006 2.92146e-006 -9.412 3.9771 -0.7758 -43.6583 -49.0054 -73.816 -0.7531 -40.938 0 -121.916 41.2809 138.995 -1.42109e-014 -40.1986 0 -17.8131 -5.03036 -33.5165 7.10543e-015 -4.4182 9.239 1.57068e-006 -3.33169e-008 2.96423e-007 9.4119 3.9773 -0.7758 57.2669 -50.1692 84.9679 0.7532 -40.9383 -7.10543e-015 131.018 42.0559 -125.276 -3.55271e-015 -40.1986 7.10543e-015 23.3388 -13.139 10.8847 3.55271e-015 -4.4182 9.239 5.57528e-006 -3.06246e-006 2.49725e-006 
